<svg xmlns="http://www.w3.org/2000/svg" viewBox="0 0 113.11 39.72"><defs><style>.cls-1{fill:#333;}</style></defs><g id="레이어_2" data-name="레이어 2"><g id="OBJECTS"><path class="cls-1" d="M5,19.28a11.32,11.32,0,0,1-3.71-4.11A11.88,11.88,0,0,1,.21,9.9,8.84,8.84,0,0,1,3.4,2.56a12.3,12.3,0,0,1,8-2.56,12,12,0,0,1,4.84.9,9,9,0,0,1,3.3,2.31,9.19,9.19,0,0,1,1.79,3.08,10.22,10.22,0,0,1,.55,3.25,3.49,3.49,0,0,1-.95,2.65,3.44,3.44,0,0,1-2.52.93,3.13,3.13,0,0,1-2.66-.9,6.77,6.77,0,0,1-.92-3.1A4,4,0,0,0,13.59,6.4,4,4,0,0,0,11,5.58a3.82,3.82,0,0,0-2.69,1A3.44,3.44,0,0,0,7.27,9.22,5.62,5.62,0,0,0,8,12a10.07,10.07,0,0,0,3.08,2.82l5.22,3.42a14.77,14.77,0,0,1,4.66,4.48,11.87,11.87,0,0,1,1.5,6.32,10.13,10.13,0,0,1-3,7.82c-2,1.89-5,2.82-9,2.82a10.69,10.69,0,0,1-5.35-1.21,8.8,8.8,0,0,1-3.21-2.92A11.61,11.61,0,0,1,0,29.66a6.86,6.86,0,0,1,.76-3.5,3,3,0,0,1,2.82-1.29,3,3,0,0,1,2.5,1.05,6.56,6.56,0,0,1,1,3.53,5.7,5.7,0,0,0,1.16,3.4,3.71,3.71,0,0,0,3,1.29,3.78,3.78,0,0,0,3.06-1.24,4.75,4.75,0,0,0,1.05-3.19,5.29,5.29,0,0,0-.79-3.05,11.38,11.38,0,0,0-2.79-2.59Z"/><path class="cls-1" d="M26.39,20.7a19.75,19.75,0,0,1,.45-4.39,9.2,9.2,0,0,1,1.56-3.48,7.25,7.25,0,0,1,3-2.35,11.57,11.57,0,0,1,4.69-.84,11.61,11.61,0,0,1,4.69.84,7.38,7.38,0,0,1,3,2.35,9,9,0,0,1,1.55,3.48,19.75,19.75,0,0,1,.45,4.39v7.75a19.91,19.91,0,0,1-.45,4.4,8.92,8.92,0,0,1-1.55,3.47,7.29,7.29,0,0,1-3,2.35,11.61,11.61,0,0,1-4.69.84,11.57,11.57,0,0,1-4.69-.84,7.17,7.17,0,0,1-3-2.35,9.09,9.09,0,0,1-1.56-3.47,19.91,19.91,0,0,1-.45-4.4Zm6.75,7.22a13.75,13.75,0,0,0,.65,5.19,2.63,2.63,0,0,0,4.59,0A13.49,13.49,0,0,0,39,27.92V21.13a12.33,12.33,0,0,0-.71-5.06,2.52,2.52,0,0,0-4.48,0,12.16,12.16,0,0,0-.71,5.06Z"/><path class="cls-1" d="M52.26,32.66a4.07,4.07,0,1,1-1.16,2.85A3.9,3.9,0,0,1,52.26,32.66ZM51.58,3.9a3.88,3.88,0,0,1,.9-2.72,4.09,4.09,0,0,1,5.29,0,4,4,0,0,1,.87,2.72V12q0,1.53-.21,3.69l-1,11.17A4.25,4.25,0,0,1,56.85,29a2.72,2.72,0,0,1-3.48,0,4.15,4.15,0,0,1-.58-2.16l-1-11.17q-.21-2.16-.21-3.69Z"/><path class="cls-1" d="M64.43,20.7a19.75,19.75,0,0,1,.45-4.39,9.2,9.2,0,0,1,1.56-3.48,7.25,7.25,0,0,1,3-2.35,13.51,13.51,0,0,1,9.38,0,7.38,7.38,0,0,1,3,2.35,9,9,0,0,1,1.55,3.48,19.75,19.75,0,0,1,.45,4.39v7.75a19.91,19.91,0,0,1-.45,4.4,8.92,8.92,0,0,1-1.55,3.47,7.29,7.29,0,0,1-3,2.35,13.51,13.51,0,0,1-9.38,0,7.17,7.17,0,0,1-3-2.35,9.09,9.09,0,0,1-1.56-3.47,19.91,19.91,0,0,1-.45-4.4Zm6.75,7.22a13.75,13.75,0,0,0,.65,5.19,2.63,2.63,0,0,0,4.59,0,13.49,13.49,0,0,0,.66-5.19V21.13a12.33,12.33,0,0,0-.71-5.06,2.52,2.52,0,0,0-4.48,0,12.16,12.16,0,0,0-.71,5.06Z"/><path class="cls-1" d="M88.77,3.85a3.5,3.5,0,0,1,1-2.67,4,4,0,0,1,2.87-1,5.28,5.28,0,0,1,2.92.71,6.21,6.21,0,0,1,2,2.87L106,24.55h.1V3.85a3.51,3.51,0,0,1,1-2.64,3.43,3.43,0,0,1,2.5-1,3.47,3.47,0,0,1,2.51,1,3.54,3.54,0,0,1,1,2.64V35.56a4,4,0,0,1-1,2.9,3.4,3.4,0,0,1-2.51,1,6.28,6.28,0,0,1-3.32-.71,5.85,5.85,0,0,1-2-2.87L95.94,14.86h-.11v21a3.53,3.53,0,0,1-1,2.61,3.57,3.57,0,0,1-5,0,3.53,3.53,0,0,1-1-2.61Z"/></g></g></svg>